<?xml version="1.0" encoding="utf-8"?>
<!-- Generator: Adobe Illustrator 22.0.0, SVG Export Plug-In . SVG Version: 6.00 Build 0)  -->
<svg version="1.1" id="Layer_1" xmlns="http://www.w3.org/2000/svg" xmlns:xlink="http://www.w3.org/1999/xlink" x="0px" y="0px"
	 viewBox="0 0 434.2 352.8" style="enable-background:new 0 0 434.2 352.8;" xml:space="preserve">
<style type="text/css">
	.st0{fill:#F46C0E;}
	.st1{fill:#EF2837;}
	.st2{fill:#62C9D9;}
	.st3{fill:#EE2230;}
	.st4{fill:#F01E22;}
	.st5{fill:#61C7DC;}
	.st6{fill:#61C3CD;}
	.st7{fill:#62C2CD;}
	.st8{fill:none;}
	.st9{fill:#F26B1A;}
</style>
<g>
	<rect x="111.2" y="210.2" class="st0" width="322" height="3"/>
	<path class="st0" d="M259.5,19.2h-79.7c0,0,0.1,0,0.1-0.1c0,0-0.1,0-0.1,0.1c-0.3,0.2-0.7,0.3-1,0.5c-1,0.5-2,1.1-3,1.6
		c-0.9,0.5-1.8,1-2.6,1.4c-1.8,1-3.6,2-5.3,3.1c-0.5,0.3-0.9,0.6-1.4,0.8c-3,1.9-6,3.9-8.9,5.9c-0.5,0.3-1,0.7-1.5,1.1
		c-5.4,3.9-10.7,8.2-15.6,12.8c-0.8,0.8-1.7,1.6-2.5,2.4c-0.2,0.2-0.5,0.5-0.7,0.7c-0.9,0.8-1.7,1.7-2.6,2.5c-1.7,1.7-3.4,3.5-5,5.3
		c-0.4,0.4-0.8,0.8-1.1,1.2c-0.2,0.3-0.5,0.6-0.7,0.8c-0.8,0.9-1.5,1.8-2.3,2.6c-2.3,2.7-4.5,5.5-6.7,8.3c-0.6,0.8-1.2,1.6-1.8,2.4
		c-0.4,0.6-0.8,1.1-1.2,1.7c-0.6,0.8-1.1,1.6-1.7,2.4c0,0.1-0.1,0.1-0.2,0.2c-0.6,0.9-1.2,1.7-1.8,2.6c-0.1,0.2-0.2,0.4-0.3,0.5
		c-0.5,0.7-0.9,1.4-1.4,2.1c-0.6,0.9-1.1,1.8-1.7,2.7c-0.4,0.6-0.7,1.2-1.1,1.8c-0.6,1-1.2,2.1-1.8,3.1c-0.4,0.8-0.9,1.6-1.3,2.4
		c-0.1,0.3-0.3,0.5-0.4,0.8h22C153.8,48.8,203.2,19.2,259.5,19.2z"/>
	<path class="st0" d="M264.2,0.2c-5,0-10,0.2-14.9,0.5c-0.8,0-1.6,0.1-2.3,0.2c-0.8,0.1-1.6,0.1-2.3,0.2c-0.5,0-0.9,0.1-1.4,0.1
		c-0.4,0-0.8,0.1-1.3,0.1c-0.8,0.1-1.6,0.2-2.4,0.3c-0.8,0.1-1.7,0.2-2.5,0.3c-0.2,0-0.4,0-0.6,0.1c-0.8,0.1-1.7,0.2-2.5,0.3
		c-0.6,0.1-1.1,0.1-1.7,0.2c-5.1,0.8-10.2,1.7-15.1,2.8c-0.5,0.1-1,0.2-1.4,0.3c-0.8,0.2-1.5,0.4-2.3,0.5c-2.4,0.6-4.8,1.2-7.2,1.9
		c-1,0.3-2,0.6-2.9,0.9c-1,0.3-2,0.6-2.9,0.9c-0.9,0.3-1.8,0.6-2.7,0.9c-0.1,0-0.1,0-0.2,0.1c-1,0.3-1.9,0.6-2.9,1
		c-0.9,0.3-1.7,0.6-2.6,0.9c-1,0.4-2.1,0.8-3.1,1.2c-0.8,0.3-1.6,0.6-2.4,0.9c-1.1,0.4-2.1,0.9-3.2,1.3h162
		C320.6,6,293.2,0.2,264.2,0.2z"/>
	<path class="st1" d="M358.5,16.2h-15.1c-21.9-9.9-46.2-15.4-71.8-15.5c4.4-0.3,8.9-0.5,13.5-0.5C311.2,0.2,336.1,6,358.5,16.2z"/>
	<path class="st2" d="M104.1,93.2H92.6c17.1-31.8,43.8-57.8,76.1-74h11.1c0,0,0.1,0,0.1-0.1c0,0-0.1,0-0.1,0.1
		c-0.4,0.2-0.7,0.3-1,0.5c-1,0.5-2,1.1-3,1.6c-0.9,0.5-1.8,1-2.6,1.4c-1.8,1-3.6,2-5.3,3.1c-0.5,0.3-0.9,0.6-1.4,0.8
		c-3,1.9-6,3.9-8.9,5.9c-0.5,0.3-1,0.7-1.5,1.1c-5.4,3.9-10.7,8.2-15.6,12.8c-0.8,0.8-1.7,1.6-2.5,2.4c-0.2,0.2-0.5,0.5-0.7,0.7
		c-0.9,0.8-1.7,1.7-2.6,2.5c-1.7,1.7-3.4,3.5-5,5.3c-0.4,0.4-0.8,0.8-1.1,1.2c-0.2,0.3-0.5,0.6-0.7,0.8c-0.8,0.9-1.5,1.8-2.3,2.6
		c-2.3,2.7-4.5,5.5-6.7,8.3c-0.6,0.8-1.2,1.6-1.8,2.4c-0.4,0.6-0.8,1.1-1.2,1.7c-0.6,0.8-1.1,1.6-1.7,2.4c0,0.1-0.1,0.1-0.2,0.2
		c-0.6,0.9-1.2,1.7-1.8,2.6c-0.1,0.2-0.2,0.4-0.3,0.5c-0.5,0.7-0.9,1.4-1.4,2.1c-0.6,0.9-1.1,1.8-1.7,2.7c-0.4,0.6-0.7,1.2-1.1,1.8
		c-0.6,1-1.2,2.1-1.8,3.1c-0.4,0.8-0.9,1.6-1.3,2.4C104.4,92.7,104.3,93,104.1,93.2z"/>
	<path class="st2" d="M245.9,0.8c-0.7,0-1.4,0.1-2.1,0.2c-0.7,0.1-1.4,0.1-2.1,0.2c-0.4,0-0.8,0.1-1.3,0.1c-0.4,0-0.8,0.1-1.2,0.1
		c-0.7,0.1-1.5,0.2-2.2,0.3c-0.8,0.1-1.5,0.2-2.3,0.3c-0.2,0-0.3,0-0.5,0.1c-0.8,0.1-1.5,0.2-2.2,0.3c-0.5,0.1-1,0.1-1.5,0.2
		c-4.6,0.8-9.2,1.7-13.7,2.8c-0.4,0.1-0.9,0.2-1.3,0.3c-0.7,0.2-1.4,0.4-2.1,0.5c-2.2,0.6-4.3,1.2-6.5,1.9c-0.9,0.3-1.8,0.6-2.7,0.9
		c-0.9,0.3-1.8,0.6-2.7,0.9c-0.8,0.3-1.7,0.6-2.5,0.9c0,0-0.1,0-0.2,0.1c-0.9,0.3-1.8,0.6-2.6,1c-0.8,0.3-1.6,0.6-2.3,0.9
		c-1,0.4-1.9,0.8-2.8,1.2c-0.7,0.3-1.5,0.6-2.2,0.9c-1,0.4-1.9,0.9-2.9,1.3h-11C196.7,6.5,220.7,0.9,245.9,0.8z"/>
	<path class="st3" d="M137.1,93.2h-12c27.7-44.7,77.2-74.5,133.6-74.5c2,0,4,0,5.9,0.1C210.8,20.9,163.8,50.1,137.1,93.2z"/>
	<g>
		<path class="st0" d="M402.4,242.2c-24.9,54-79.5,91.5-142.9,91.5c-86.8,0-157.2-70.4-157.2-157.2c0-24.1,5.4-46.9,15.1-67.2H96.5
			c-0.1,0.2-0.2,0.4-0.3,0.6c-0.3,0.7-0.5,1.3-0.8,2c-0.5,1.3-1,2.7-1.5,4c-0.2,0.7-0.5,1.4-0.7,2c-0.5,1.4-1,2.8-1.4,4.2
			c-0.3,0.9-0.6,1.9-0.9,2.8c-0.2,0.5-0.3,1-0.4,1.4c-0.3,0.9-0.5,1.7-0.8,2.6c-0.3,1.1-0.6,2.3-0.9,3.4c-0.3,1-0.5,2-0.8,3
			c-0.2,1-0.5,2-0.7,3c-0.6,3-1.2,6-1.7,9c-0.1,0.6-0.2,1.2-0.3,1.8c-0.2,0.9-0.3,1.8-0.4,2.7c-0.1,0.7-0.2,1.3-0.3,2
			c-0.1,0.8-0.2,1.6-0.3,2.3c-0.1,0.5-0.1,1.1-0.2,1.6c-0.1,0.9-0.2,1.8-0.3,2.7c0,0.4-0.1,0.9-0.1,1.3c-0.2,1.9-0.3,3.8-0.4,5.7
			c0,0.7-0.1,1.4-0.1,2.1c-0.1,1.3-0.1,2.7-0.1,4c0,0.9,0,1.8,0,2.6c0,0.9,0,1.7,0,2.6c0,0.6,0,1.3,0,1.9c0,0.5,0,1.1,0,1.6
			c0,0.2,0,0.4,0,0.5c0,0.6,0,1.2,0.1,1.8c0.1,2.1,0.2,4.2,0.4,6.3c0,0.7,0.1,1.3,0.2,2c0,0.5,0.1,1,0.1,1.4
			c0.1,0.7,0.2,1.4,0.2,2.1c0.1,0.6,0.1,1.2,0.2,1.8c0.1,0.7,0.2,1.4,0.3,2c0.1,0.6,0.2,1.2,0.2,1.7c0.1,0.5,0.1,1.1,0.2,1.6
			c0.3,2,0.7,3.9,1,5.9c0.2,1.2,0.5,2.5,0.8,3.7c0.6,2.7,1.2,5.4,1.9,8.1c0.2,0.6,0.3,1.2,0.5,1.8c0.8,3.1,1.8,6.1,2.8,9.1
			c0.3,0.8,0.5,1.6,0.8,2.4c0.1,0.4,0.3,0.8,0.4,1.2c0.1,0.3,0.2,0.7,0.4,1c0,0.1,0.1,0.3,0.1,0.4c0.1,0.4,0.3,0.8,0.4,1.2
			c0.1,0.3,0.2,0.7,0.4,1c0.2,0.5,0.4,1,0.6,1.5c0.3,0.7,0.5,1.3,0.8,2c0.2,0.6,0.5,1.2,0.8,1.8c0.5,1.2,1.1,2.5,1.6,3.7
			c0.4,1,0.9,1.9,1.3,2.9c1.4,2.9,2.8,5.7,4.3,8.5c0.4,0.7,0.7,1.4,1.1,2c0.9,1.6,1.7,3.1,2.6,4.6c0.2,0.4,0.5,0.8,0.7,1.2
			c0.3,0.4,0.5,0.9,0.8,1.3c0.3,0.5,0.6,0.9,0.9,1.4c0.7,1.1,1.4,2.2,2.1,3.3c0.6,1,1.3,1.9,1.9,2.8c0.5,0.7,0.9,1.4,1.4,2
			c1,1.3,1.9,2.7,2.9,4c0.6,0.8,1.2,1.6,1.8,2.3c0.5,0.7,1,1.3,1.5,1.9c0.4,0.5,0.9,1.1,1.3,1.6c0.8,0.9,1.5,1.9,2.3,2.8
			c0.8,0.9,1.6,1.8,2.3,2.7c2.2,2.4,4.4,4.8,6.8,7.1c0.7,0.7,1.4,1.4,2.1,2c0.7,0.7,1.4,1.4,2.2,2c0.5,0.5,1.1,1,1.7,1.5
			c0.4,0.4,0.8,0.8,1.2,1.1c0.5,0.4,1,0.9,1.5,1.3c1.3,1.1,2.6,2.2,3.9,3.3c0.9,0.8,1.9,1.5,2.8,2.3c0.1,0,0.1,0.1,0.1,0.1
			c0.8,0.6,1.5,1.2,2.3,1.8c1.3,1,2.6,1.9,3.9,2.8c0.8,0.6,1.7,1.2,2.5,1.8c0.1,0,0.1,0.1,0.2,0.1c0.6,0.4,1.2,0.8,1.8,1.2
			c0.4,0.3,0.9,0.6,1.3,0.9c0.5,0.4,1.1,0.7,1.6,1.1c0.9,0.6,1.7,1.1,2.6,1.7c0.5,0.3,1,0.6,1.6,1c2.5,1.5,5.1,3,7.7,4.4
			c1.1,0.6,2.2,1.2,3.3,1.7c1.4,0.7,2.9,1.4,4.3,2.1c0.6,0.3,1.2,0.6,1.8,0.9c0.7,0.3,1.5,0.7,2.2,1c0.5,0.2,1,0.4,1.5,0.6
			c0.7,0.3,1.5,0.7,2.2,1c0.6,0.2,1.1,0.5,1.7,0.7c0.3,0.1,0.6,0.2,0.9,0.4c0.3,0.1,0.6,0.2,0.9,0.4c0.1,0,0.1,0.1,0.2,0.1
			c0.7,0.3,1.3,0.5,2,0.8c0.4,0.2,0.8,0.3,1.2,0.4c0.4,0.2,0.9,0.3,1.3,0.5c1,0.4,2,0.7,2.9,1c0.4,0.1,0.8,0.3,1.2,0.4
			c0.7,0.2,1.5,0.5,2.2,0.7c0.5,0.1,0.9,0.3,1.4,0.4c0.6,0.2,1.2,0.4,1.8,0.6c7.1,2.1,14.3,3.8,21.8,5c1.4,0.2,2.7,0.4,4.1,0.6
			s2.7,0.4,4.1,0.5c6.8,0.8,13.7,1.2,20.7,1.2c74.1,0,137.5-45.7,163.6-110.5H402.4z"/>
		<path class="st4" d="M434.1,242.2C408,307,344.6,352.8,270.5,352.8c-1.8,0-3.7,0-5.5-0.1c71.7-2.2,132.7-47.2,158.1-110.4H434.1z"
			/>
		<path class="st2" d="M238.8,351.5c-93-4.4-167.1-81.2-167.1-175.3c0-23.7,4.7-46.4,13.2-67h11.5c-0.1,0.2-0.2,0.4-0.3,0.6
			c-0.3,0.7-0.5,1.3-0.8,2c-0.5,1.3-1,2.7-1.5,4c-0.2,0.7-0.5,1.4-0.7,2c-0.5,1.4-1,2.8-1.4,4.2c-0.3,0.9-0.6,1.9-0.9,2.8
			c-0.2,0.5-0.3,1-0.4,1.4c-0.3,0.9-0.5,1.7-0.8,2.6c-0.3,1.1-0.6,2.3-0.9,3.4c-0.3,1-0.5,2-0.8,3c-0.2,1-0.5,2-0.7,3
			c-0.6,3-1.2,6-1.7,9c-0.1,0.6-0.2,1.2-0.3,1.8c-0.2,0.9-0.3,1.8-0.4,2.7c-0.1,0.7-0.2,1.3-0.3,2c-0.1,0.8-0.2,1.6-0.3,2.3
			c-0.1,0.5-0.1,1.1-0.2,1.6c-0.1,0.9-0.2,1.8-0.3,2.7c0,0.4-0.1,0.9-0.1,1.3c-0.2,1.9-0.3,3.8-0.4,5.7c0,0.7-0.1,1.4-0.1,2.1
			c-0.1,1.3-0.1,2.7-0.1,4c0,0.9,0,1.8,0,2.6c0,0.9,0,1.7,0,2.6c0,0.6,0,1.3,0,1.9c0,0.5,0,1.1,0,1.6c0,0.2,0,0.4,0,0.5
			c0,0.6,0,1.2,0.1,1.8c0.1,2.1,0.2,4.2,0.4,6.3c0,0.7,0.1,1.3,0.2,2c0,0.5,0.1,1,0.1,1.4c0.1,0.7,0.2,1.4,0.2,2.1
			c0.1,0.6,0.1,1.2,0.2,1.8c0.1,0.7,0.2,1.4,0.3,2c0.1,0.6,0.2,1.2,0.2,1.7c0.1,0.5,0.1,1.1,0.2,1.6c0.3,2,0.7,3.9,1,5.9
			c0.2,1.2,0.5,2.5,0.8,3.7c0.6,2.7,1.2,5.4,1.9,8.1c0.2,0.6,0.3,1.2,0.5,1.8c0.8,3.1,1.8,6.1,2.8,9.1c0.3,0.8,0.5,1.6,0.8,2.4
			c0.1,0.4,0.3,0.8,0.4,1.2c0.1,0.3,0.2,0.7,0.4,1c0,0.1,0.1,0.3,0.1,0.4c0.1,0.4,0.3,0.8,0.4,1.2c0.1,0.3,0.2,0.7,0.4,1
			c0.2,0.5,0.4,1,0.6,1.5c0.3,0.7,0.5,1.3,0.8,2c0.2,0.6,0.5,1.2,0.8,1.8c0.5,1.2,1.1,2.5,1.6,3.7c0.4,1,0.9,1.9,1.3,2.9
			c1.4,2.9,2.8,5.7,4.3,8.5c0.4,0.7,0.7,1.4,1.1,2c0.9,1.6,1.7,3.1,2.6,4.6c0.2,0.4,0.5,0.8,0.7,1.2c0.3,0.4,0.5,0.9,0.8,1.3
			c0.3,0.5,0.6,0.9,0.9,1.4c0.7,1.1,1.4,2.2,2.1,3.3c0.6,1,1.3,1.9,1.9,2.8c0.5,0.7,0.9,1.4,1.4,2c1,1.3,1.9,2.7,2.9,4
			c0.6,0.8,1.2,1.6,1.8,2.3c0.5,0.7,1,1.3,1.5,1.9c0.4,0.5,0.9,1.1,1.3,1.6c0.8,0.9,1.5,1.9,2.3,2.8c0.8,0.9,1.6,1.8,2.3,2.7
			c2.2,2.4,4.4,4.8,6.8,7.1c0.7,0.7,1.4,1.4,2.1,2c0.7,0.7,1.4,1.4,2.2,2c0.5,0.5,1.1,1,1.7,1.5c0.4,0.4,0.8,0.8,1.2,1.1
			c0.5,0.4,1,0.9,1.5,1.3c1.3,1.1,2.6,2.2,3.9,3.3c0.9,0.8,1.9,1.5,2.8,2.3c0.1,0,0.1,0.1,0.1,0.1c0.8,0.6,1.5,1.2,2.3,1.8
			c1.3,1,2.6,1.9,3.9,2.8c0.8,0.6,1.7,1.2,2.5,1.8c0.1,0,0.1,0.1,0.2,0.1c0.6,0.4,1.2,0.8,1.8,1.2c0.4,0.3,0.9,0.6,1.3,0.9
			c0.5,0.4,1.1,0.7,1.6,1.1c0.9,0.6,1.7,1.1,2.6,1.7c0.5,0.3,1,0.6,1.6,1c2.5,1.5,5.1,3,7.7,4.4c1.1,0.6,2.2,1.2,3.3,1.7
			c1.4,0.7,2.9,1.4,4.3,2.1c0.6,0.3,1.2,0.6,1.8,0.9c0.7,0.3,1.5,0.7,2.2,1c0.5,0.2,1,0.4,1.5,0.6c0.7,0.3,1.5,0.7,2.2,1
			c0.6,0.2,1.1,0.5,1.7,0.7c0.3,0.1,0.6,0.2,0.9,0.4c0.3,0.1,0.6,0.2,0.9,0.4c0.1,0,0.1,0.1,0.2,0.1c0.7,0.3,1.3,0.5,2,0.8
			c0.4,0.2,0.8,0.3,1.2,0.4c0.4,0.2,0.9,0.3,1.3,0.5c1,0.4,2,0.7,2.9,1c0.4,0.1,0.8,0.3,1.2,0.4c0.7,0.2,1.5,0.5,2.2,0.7
			c0.5,0.1,0.9,0.3,1.4,0.4c0.6,0.2,1.2,0.4,1.8,0.6c7.1,2.1,14.3,3.8,21.8,5c1.4,0.2,2.7,0.4,4.1,0.6S237.5,351.4,238.8,351.5z"/>
		<path class="st3" d="M264.8,334.1c-2,0.1-4,0.1-6,0.1c-87.3,0-158.1-70.8-158.1-158.1c0-23.9,5.3-46.6,14.8-66.9h12.1
			c-9.5,20.3-14.8,43-14.8,66.9C112.8,261.4,180.3,330.9,264.8,334.1z"/>
		<path class="st5" d="M403,242.2c-25.2,53.8-79.9,91.1-143.2,91.1c-1.9,0-3.7,0-5.5-0.1c61-2.1,113.2-38.8,137.7-91H403z"/>
	</g>
	<g>
		<path class="st0" d="M362.9,137.7h-12c-6.8-14.7-17.3-27.2-30.4-36.5c-0.4-0.3-0.9-0.6-1.3-0.9c-0.1-0.1-0.2-0.2-0.4-0.2
			c-14.5-9.8-32-15.4-50.7-15.4c-0.2,0-0.5,0-0.7,0c-37.4,0.3-69.5,23.1-83.3,55.6c-0.3,0.7-0.5,1.3-0.8,2h-11.7
			c0-0.1,0.1-0.2,0.1-0.3c0.1-0.2,0.2-0.5,0.2-0.7l0.2-0.6c0-0.1,0-0.2,0.1-0.2c0-0.1,0.1-0.1,0.1-0.2c0.1-0.2,0.1-0.3,0.2-0.5
			c0.1-0.2,0.2-0.4,0.2-0.6c0.1-0.3,0.2-0.6,0.3-0.8c0.2-0.4,0.3-0.8,0.5-1.1c0.1-0.4,0.3-0.7,0.4-1.1c0.3-0.7,0.6-1.4,0.9-2.1
			c0.2-0.6,0.5-1.1,0.8-1.7c0.8-1.7,1.6-3.3,2.5-4.9c0.2-0.4,0.4-0.8,0.7-1.2c0.5-0.9,1-1.8,1.5-2.7c0.1-0.2,0.3-0.5,0.4-0.7
			c0.2-0.2,0.3-0.5,0.4-0.7c0.2-0.3,0.3-0.5,0.5-0.8c0.4-0.6,0.8-1.3,1.2-1.9c0.4-0.6,0.7-1.1,1.1-1.7c0.3-0.4,0.5-0.8,0.8-1.2
			c0.6-0.8,1.1-1.5,1.7-2.3c0.3-0.5,0.7-0.9,1-1.4c0.3-0.4,0.6-0.7,0.9-1.1c0.2-0.3,0.5-0.6,0.8-1c0.4-0.5,0.9-1.1,1.4-1.6
			c0.5-0.5,0.9-1,1.4-1.5c1.3-1.4,2.6-2.8,3.9-4.1c0.4-0.4,0.8-0.8,1.2-1.2c0.4-0.4,0.8-0.8,1.3-1.2c0.3-0.3,0.6-0.6,1-0.9
			c0.2-0.2,0.5-0.4,0.7-0.6c0.3-0.3,0.6-0.5,0.8-0.8c0.7-0.6,1.5-1.3,2.2-1.9c0.5-0.5,1.1-0.9,1.6-1.3c0,0,0.1,0,0.1-0.1
			c0.4-0.3,0.9-0.7,1.3-1c0.7-0.6,1.5-1.1,2.2-1.7c0.5-0.3,1-0.7,1.5-1c0,0,0.1-0.1,0.1-0.1c0.3-0.2,0.7-0.5,1-0.7
			c0.2-0.2,0.5-0.3,0.8-0.5c0.3-0.2,0.6-0.4,1-0.6c0.5-0.3,1-0.6,1.5-1c0.3-0.2,0.6-0.4,0.9-0.6c1.5-0.9,3-1.8,4.5-2.6
			c0.6-0.3,1.3-0.7,1.9-1c0.8-0.4,1.7-0.8,2.5-1.2c0.4-0.2,0.7-0.4,1.1-0.5c0.4-0.2,0.9-0.4,1.3-0.6c0.3-0.1,0.5-0.2,0.8-0.4
			c0.4-0.2,0.9-0.4,1.3-0.6c0.3-0.1,0.7-0.3,1-0.4c0.2-0.1,0.4-0.1,0.5-0.2c0.2-0.1,0.4-0.1,0.5-0.2c0,0,0.1,0,0.1,0
			c0.4-0.2,0.8-0.3,1.2-0.5c0.2-0.1,0.4-0.2,0.7-0.3c0.2-0.1,0.5-0.2,0.8-0.3c0.6-0.2,1.1-0.4,1.7-0.6c0.2-0.1,0.5-0.2,0.7-0.2
			c0.4-0.2,0.8-0.3,1.3-0.4c0.3-0.1,0.5-0.2,0.8-0.2c0.4-0.1,0.7-0.2,1.1-0.3c4.1-1.2,8.3-2.2,12.6-2.9c0.8-0.1,1.6-0.2,2.3-0.4
			c0.8-0.1,1.6-0.2,2.4-0.3c3.9-0.4,7.9-0.7,12-0.7c1.2,0,2.4,0,3.7,0.1c0.5,0,1,0,1.5,0.1c0.5,0,1,0,1.5,0.1c0.4,0,0.8,0,1.2,0.1
			c0.1,0,0.2,0,0.3,0c0.6,0,1.2,0.1,1.8,0.2c0.6,0.1,1.3,0.1,2,0.2c0.6,0.1,1.2,0.1,1.8,0.2c0.5,0.1,1,0.1,1.5,0.2
			c0.4,0.1,0.8,0.1,1.2,0.2c0.5,0.1,1,0.2,1.5,0.3c0.5,0.1,0.9,0.2,1.3,0.2c2.3,0.4,4.7,1,6.9,1.6c0.5,0.1,1,0.2,1.4,0.4
			c4.2,1.2,8.3,2.6,12.3,4.3c0.6,0.2,1.1,0.5,1.7,0.7c4,1.8,7.8,3.8,11.5,6.1c2.6,1.6,5,3.2,7.4,5c0.4,0.3,0.9,0.7,1.3,1
			c0.5,0.4,1.1,0.8,1.6,1.2c0.9,0.7,1.8,1.5,2.7,2.2l0.2,0.2c0.4,0.4,0.9,0.8,1.3,1.1c1.4,1.2,2.7,2.4,4,3.7
			c0.4,0.4,0.9,0.9,1.3,1.3c0.4,0.4,0.9,0.9,1.3,1.3c0.8,0.9,1.7,1.8,2.4,2.7c0,0,0,0,0,0c0.4,0.5,0.8,0.9,1.2,1.4
			c0.4,0.4,0.7,0.8,1.1,1.3c0.4,0.5,0.8,1,1.2,1.5c0.4,0.5,0.8,1,1.1,1.4c0.4,0.5,0.7,1,1.1,1.5c0.4,0.6,0.9,1.2,1.3,1.8
			c0.3,0.4,0.6,0.8,0.8,1.2c0.3,0.5,0.7,1,1,1.5c2.3,3.5,4.4,7.2,6.3,11c0.3,0.6,0.6,1.1,0.8,1.7c0,0,0,0.1,0.1,0.1
			c0.5,1.1,1,2.2,1.5,3.3c0,0,0,0,0,0C362.4,136.5,362.6,137.1,362.9,137.7z"/>
		<path class="st6" d="M369.2,137.7c-15.1-37.5-51.9-64-94.8-64c-1.1,0-2.1,0-3.2,0.1c41.6,1.3,76.9,27.4,91.6,64H369.2z"/>
		<path class="st1" d="M256.1,74.3c-0.8,0.1-1.6,0.2-2.4,0.3c-0.8,0.1-1.6,0.2-2.3,0.4c-4.3,0.7-8.5,1.7-12.6,2.9
			c-0.3,0.1-0.7,0.2-1.1,0.3c-0.3,0.1-0.5,0.2-0.8,0.2c-0.4,0.1-0.9,0.3-1.3,0.4c-0.2,0.1-0.5,0.2-0.7,0.2c-0.6,0.2-1.1,0.4-1.7,0.6
			c-0.3,0.1-0.5,0.2-0.8,0.3c-0.2,0.1-0.5,0.2-0.7,0.3c-0.4,0.1-0.8,0.3-1.2,0.5c0,0-0.1,0-0.1,0c-0.2,0.1-0.3,0.1-0.5,0.2
			c-0.2,0.1-0.3,0.1-0.5,0.2c-0.3,0.1-0.7,0.3-1,0.4c-0.4,0.2-0.9,0.4-1.3,0.6c-0.3,0.1-0.6,0.2-0.8,0.4c-0.4,0.2-0.9,0.4-1.3,0.6
			c-0.4,0.2-0.7,0.3-1.1,0.5c-0.8,0.4-1.7,0.8-2.5,1.2c-0.6,0.3-1.3,0.7-1.9,1c-1.5,0.8-3,1.7-4.5,2.6c-0.3,0.2-0.6,0.4-0.9,0.6
			c-0.5,0.3-1,0.6-1.5,1c-0.3,0.2-0.6,0.4-1,0.6c-0.2,0.2-0.5,0.3-0.8,0.5c-0.3,0.2-0.7,0.5-1,0.7c0,0-0.1,0-0.1,0.1
			c-0.5,0.3-1,0.7-1.5,1c-0.8,0.5-1.5,1.1-2.2,1.7c-0.5,0.3-0.9,0.7-1.3,1c0,0-0.1,0-0.1,0.1c-0.6,0.4-1.1,0.9-1.6,1.3
			c-0.8,0.6-1.5,1.2-2.2,1.9c-0.3,0.2-0.6,0.5-0.8,0.8c-0.2,0.2-0.5,0.4-0.7,0.6c-0.3,0.3-0.6,0.6-1,0.9c-0.4,0.4-0.8,0.8-1.3,1.2
			c-0.4,0.4-0.8,0.8-1.2,1.2c-1.3,1.3-2.6,2.7-3.9,4.1c-0.5,0.5-0.9,1-1.4,1.5c-0.5,0.5-0.9,1.1-1.4,1.6c-0.3,0.3-0.5,0.6-0.8,1
			c-0.3,0.4-0.6,0.7-0.9,1.1c-0.4,0.5-0.7,0.9-1,1.4c-0.6,0.8-1.1,1.5-1.7,2.3c-0.3,0.4-0.5,0.8-0.8,1.2c-0.4,0.5-0.8,1.1-1.1,1.7
			c-0.4,0.6-0.8,1.3-1.2,1.9c-0.2,0.3-0.3,0.5-0.5,0.8c-0.1,0.2-0.3,0.5-0.4,0.7c-0.1,0.2-0.3,0.5-0.4,0.7c-0.5,0.9-1,1.8-1.5,2.7
			c-0.2,0.4-0.4,0.8-0.7,1.2c-0.9,1.6-1.7,3.3-2.5,4.9c-0.2,0.6-0.5,1.1-0.8,1.7c-0.3,0.7-0.6,1.4-0.9,2.1c-0.1,0.3-0.3,0.7-0.4,1.1
			c-0.2,0.4-0.3,0.8-0.5,1.1c-0.1,0.3-0.2,0.6-0.3,0.8c-0.1,0.2-0.2,0.4-0.2,0.6c-0.1,0.2-0.1,0.3-0.2,0.5c0,0.1,0,0.1-0.1,0.2
			c0,0.1-0.1,0.1-0.1,0.2l-0.2,0.6c-0.1,0.2-0.2,0.5-0.2,0.7c0,0.1-0.1,0.2-0.1,0.3H165c0.2-0.7,0.5-1.3,0.7-2
			C179.6,103.1,214.6,76.3,256.1,74.3z"/>
		<path class="st7" d="M271.1,84.4c-1.2,0-2.5,0.1-3.7,0.2c-34.8,2.7-64.1,24.9-77.1,55.6c-0.3,0.7-0.6,1.3-0.8,2h-7
			c0.3-0.7,0.5-1.3,0.8-2c13.9-32.8,46.5-55.9,84.4-55.9C268.8,84.4,270,84.4,271.1,84.4z"/>
		<path class="st1" d="M351.3,137.7c-14.6-31.2-46.3-52.8-83-52.8c-1.1,0-2.1,0-3.2,0.1c35.4,1.2,65.6,22.5,79.8,52.7H351.3z"/>
	</g>
	<g>
		<path class="st0" d="M337.6,210.5c0,0.1-0.1,0.2-0.1,0.3c-0.1,0.2-0.2,0.5-0.2,0.7l-0.2,0.6c0,0.1-0.1,0.2-0.1,0.2
			c0,0.1-0.1,0.2-0.1,0.2c-0.1,0.2-0.1,0.3-0.2,0.5c-0.1,0.2-0.1,0.4-0.2,0.6c-0.1,0.3-0.2,0.6-0.3,0.8c-0.1,0.4-0.3,0.8-0.5,1.2
			c-0.1,0.3-0.3,0.7-0.4,1.1c-0.3,0.7-0.6,1.4-0.9,2.2c-0.3,0.6-0.5,1.1-0.8,1.7c-0.8,1.7-1.6,3.3-2.5,5c-0.2,0.4-0.4,0.8-0.7,1.2
			c-0.5,0.9-1,1.8-1.5,2.7c-0.1,0.2-0.3,0.5-0.4,0.7c-0.1,0.2-0.3,0.5-0.4,0.7c-0.2,0.3-0.3,0.5-0.5,0.8c-0.4,0.6-0.8,1.3-1.2,1.9
			c-0.4,0.6-0.8,1.1-1.1,1.7c-0.3,0.4-0.5,0.8-0.8,1.2c-0.6,0.8-1.1,1.5-1.7,2.3c-0.3,0.5-0.7,0.9-1,1.4c-0.3,0.4-0.6,0.7-0.9,1.1
			c-0.2,0.3-0.5,0.6-0.8,1c-0.5,0.5-0.9,1.1-1.4,1.6c-0.4,0.5-0.9,1-1.4,1.6c-1.3,1.4-2.6,2.8-3.9,4.1c-0.4,0.4-0.8,0.8-1.2,1.2
			c-0.4,0.4-0.9,0.8-1.3,1.2c-0.3,0.3-0.6,0.6-1,0.9c-0.2,0.2-0.5,0.4-0.7,0.6c-0.3,0.3-0.6,0.5-0.9,0.8c-0.7,0.6-1.5,1.3-2.2,1.9
			c-0.6,0.5-1.1,0.9-1.7,1.3c0,0,0,0-0.1,0.1c-0.4,0.4-0.9,0.7-1.4,1c-0.7,0.6-1.5,1.1-2.2,1.7c-0.5,0.3-1,0.7-1.5,1
			c0,0-0.1,0.1-0.1,0.1c-0.3,0.2-0.7,0.5-1,0.7c-0.2,0.2-0.5,0.3-0.8,0.5c-0.3,0.2-0.6,0.4-1,0.6c-0.5,0.3-1,0.6-1.5,1
			c-0.3,0.2-0.6,0.4-0.9,0.6c-1.5,0.9-3,1.8-4.5,2.6c-0.6,0.3-1.3,0.7-1.9,1c-0.8,0.4-1.7,0.8-2.5,1.2c-0.4,0.2-0.7,0.4-1.1,0.5
			c-0.4,0.2-0.9,0.4-1.3,0.6c-0.3,0.1-0.5,0.2-0.8,0.4c-0.4,0.2-0.9,0.4-1.3,0.6c-0.3,0.1-0.7,0.3-1,0.4c-0.2,0.1-0.4,0.1-0.5,0.2
			s-0.4,0.1-0.5,0.2c0,0-0.1,0-0.1,0c-0.4,0.2-0.8,0.3-1.2,0.5c-0.2,0.1-0.4,0.2-0.7,0.3c-0.2,0.1-0.5,0.2-0.8,0.3
			c-0.6,0.2-1.1,0.4-1.7,0.6c-0.2,0.1-0.4,0.2-0.7,0.2c-0.4,0.2-0.8,0.3-1.3,0.4c-0.3,0.1-0.6,0.2-0.8,0.2c-0.4,0.1-0.7,0.2-1.1,0.3
			c-4.1,1.2-8.3,2.2-12.7,2.9c-0.8,0.1-1.6,0.2-2.4,0.4c-0.8,0.1-1.6,0.2-2.4,0.3c-4,0.5-8,0.7-12,0.7c-1.2,0-2.4,0-3.7-0.1
			c-1,0-2-0.1-3-0.2c-0.4,0-0.8,0-1.2-0.1c-1-0.1-2.1-0.2-3.1-0.3c-0.3,0-0.7-0.1-1-0.1c-0.6-0.1-1.2-0.1-1.8-0.2
			c-0.5-0.1-1-0.1-1.5-0.2c-0.4-0.1-0.8-0.1-1.2-0.2c-0.1,0-0.2,0-0.3-0.1c-0.4-0.1-0.8-0.1-1.3-0.2c-0.4-0.1-0.9-0.2-1.3-0.2
			c0,0-0.1,0-0.1,0c-0.5-0.1-1.1-0.2-1.6-0.3c-0.1,0-0.1,0-0.2,0c-0.5-0.1-1-0.2-1.5-0.3c0,0-0.1,0-0.1,0c-1.1-0.2-2.1-0.5-3.2-0.8
			c-0.1,0-0.2-0.1-0.3-0.1c-0.5-0.1-1-0.3-1.4-0.4c0,0-0.1,0-0.1,0c-0.6-0.2-1.2-0.3-1.8-0.5c-6.1-1.8-11.9-4.2-17.4-7
			c-0.5-0.2-1-0.5-1.5-0.8c-1.1-0.6-2.1-1.2-3.2-1.8c-0.5-0.3-1.1-0.6-1.6-0.9c-0.9-0.5-1.7-1-2.5-1.6c-0.5-0.3-0.9-0.6-1.4-0.9
			c-0.6-0.4-1.2-0.8-1.8-1.3c-0.6-0.4-1.2-0.9-1.8-1.3c-0.4-0.3-0.9-0.7-1.3-1c-0.3-0.2-0.5-0.4-0.8-0.6c-0.3-0.2-0.5-0.4-0.8-0.6
			c-0.5-0.4-0.9-0.7-1.4-1.1c-0.5-0.4-1-0.9-1.6-1.3c-0.4-0.4-0.9-0.8-1.3-1.1c-0.3-0.2-0.5-0.5-0.8-0.7c-0.3-0.2-0.5-0.5-0.8-0.7
			H189c0.2,0.1,0.3,0.2,0.5,0.3c0.1,0.1,0.2,0.2,0.4,0.2c14.5,9.8,32.1,15.5,50.9,15.5c0.2,0,0.5,0,0.7,0
			c37.6-0.3,69.7-23.2,83.6-55.8c0.3-0.7,0.6-1.3,0.8-2H337.6z"/>
		<path class="st6" d="M237.6,279.3c-1.1,0-2.1,0-3.2,0c-26.8,0-51.2-10.3-69.5-27.1h6.4c0.3,0.2,0.5,0.5,0.8,0.7
			c0.7,0.6,1.4,1.2,2.1,1.8c0.5,0.4,1,0.9,1.6,1.3c0.7,0.6,1.4,1.2,2.1,1.7c1.3,1,2.6,2,3.9,2.9c0.6,0.4,1.2,0.9,1.8,1.3
			c0.5,0.3,0.9,0.6,1.4,0.9c0.8,0.5,1.7,1.1,2.5,1.6c0.5,0.3,1,0.6,1.6,0.9c1.1,0.6,2.1,1.2,3.2,1.8c0.5,0.3,1,0.5,1.5,0.8
			c5.5,2.9,11.3,5.2,17.4,7c0.6,0.2,1.2,0.3,1.8,0.5c0,0,0.1,0,0.1,0c0.5,0.1,1,0.3,1.4,0.4c0.1,0,0.2,0,0.3,0.1
			c1,0.3,2.1,0.5,3.2,0.8c0,0,0.1,0,0.1,0c0.5,0.1,1,0.2,1.5,0.3c0.1,0,0.1,0,0.2,0c0.5,0.1,1.1,0.2,1.6,0.3c0,0,0.1,0,0.1,0
			c0.4,0.1,0.9,0.2,1.3,0.2c0.4,0.1,0.8,0.2,1.3,0.2c1.9,0.3,3.8,0.6,5.7,0.8c1,0.1,2.1,0.2,3.1,0.3c0.4,0,0.8,0.1,1.2,0.1
			c1,0.1,2,0.1,3,0.2C237.3,279.3,237.4,279.3,237.6,279.3z"/>
		<path class="st1" d="M252.8,278.7c0.8-0.1,1.6-0.2,2.4-0.3c0.8-0.1,1.6-0.2,2.4-0.4c4.3-0.7,8.5-1.7,12.7-2.9
			c0.3-0.1,0.7-0.2,1.1-0.3c0.3-0.1,0.5-0.2,0.8-0.3c0.4-0.1,0.9-0.3,1.3-0.4c0.2-0.1,0.5-0.2,0.7-0.2c0.6-0.2,1.1-0.4,1.7-0.6
			c0.3-0.1,0.5-0.2,0.8-0.3c0.2-0.1,0.5-0.2,0.7-0.3c0.4-0.1,0.8-0.3,1.2-0.5c0,0,0.1,0,0.1,0c0.2-0.1,0.3-0.1,0.5-0.2
			c0.2-0.1,0.4-0.1,0.5-0.2c0.3-0.1,0.7-0.3,1-0.4c0.4-0.2,0.9-0.4,1.3-0.6c0.3-0.1,0.6-0.2,0.8-0.4c0.4-0.2,0.9-0.4,1.3-0.6
			c0.4-0.2,0.7-0.3,1.1-0.5c0.8-0.4,1.7-0.8,2.5-1.2c0.6-0.3,1.3-0.7,1.9-1c1.5-0.8,3-1.7,4.5-2.6c0.3-0.2,0.6-0.4,0.9-0.6
			c0.5-0.3,1-0.6,1.5-1c0.3-0.2,0.6-0.4,1-0.6c0.3-0.2,0.5-0.3,0.8-0.5c0.4-0.2,0.7-0.5,1-0.7c0,0,0.1-0.1,0.1-0.1
			c0.5-0.3,1-0.7,1.5-1c0.8-0.5,1.5-1.1,2.2-1.7c0.5-0.3,0.9-0.7,1.3-1c0,0,0.1,0,0.1-0.1c0.6-0.4,1.1-0.9,1.6-1.3
			c0.8-0.6,1.5-1.3,2.2-1.9c0.3-0.3,0.6-0.5,0.9-0.8c0.2-0.2,0.5-0.4,0.7-0.6c0.3-0.3,0.6-0.6,1-0.9c0.4-0.4,0.8-0.8,1.3-1.2
			c0.4-0.4,0.8-0.8,1.2-1.2c1.3-1.3,2.6-2.7,3.9-4.1c0.5-0.5,0.9-1,1.4-1.6c0.5-0.5,0.9-1.1,1.4-1.6c0.3-0.3,0.5-0.6,0.8-1
			c0.3-0.4,0.6-0.7,0.9-1.1c0.4-0.5,0.7-0.9,1-1.4c0.6-0.8,1.1-1.5,1.7-2.3c0.3-0.4,0.6-0.8,0.8-1.2c0.4-0.5,0.8-1.1,1.1-1.7
			c0.4-0.6,0.8-1.3,1.2-1.9c0.2-0.3,0.3-0.5,0.5-0.8c0.2-0.3,0.3-0.5,0.5-0.7c0.1-0.2,0.3-0.5,0.4-0.7c0.5-0.9,1-1.8,1.5-2.7
			c0.2-0.4,0.4-0.8,0.7-1.2c0.9-1.6,1.7-3.3,2.5-5c0.3-0.6,0.5-1.1,0.8-1.7c0.3-0.7,0.6-1.4,0.9-2.1c0.2-0.4,0.3-0.7,0.4-1.1
			c0.2-0.4,0.3-0.8,0.5-1.2c0.1-0.3,0.2-0.6,0.3-0.8c0.1-0.2,0.2-0.4,0.2-0.6c0.1-0.2,0.1-0.3,0.2-0.5c0-0.1,0-0.1,0.1-0.2
			c0-0.1,0.1-0.2,0.1-0.2l0.2-0.6c0.1-0.2,0.2-0.5,0.3-0.7c0-0.1,0.1-0.2,0.1-0.3h6.6c-0.2,0.7-0.5,1.3-0.7,2
			C329.6,249.8,294.4,276.7,252.8,278.7z"/>
		<path class="st7" d="M237.7,268.5c1.3-0.1,2.5-0.1,3.8-0.2c34.9-2.7,64.3-24.9,77.4-55.8c0.3-0.7,0.6-1.3,0.8-2h7
			c-0.3,0.7-0.5,1.3-0.8,2c-14,33-46.6,56.1-84.7,56.1C240,268.6,238.9,268.6,237.7,268.5z"/>
		<path class="st3" d="M243.8,268c-1.1,0-2.1,0.1-3.2,0.1c-19.1,0-36.9-5.8-51.6-15.8h6.4C209.3,261.7,225.9,267.4,243.8,268z"/>
	</g>
	<line class="st8" x1="385.2" y1="16.2" x2="186.2" y2="16.2"/>
	<path class="st0" d="M180,19.2c0,0-0.1,0-0.1,0.1h0C179.9,19.2,179.9,19.2,180,19.2z"/>
	<rect x="11.2" y="140.2" class="st0" width="203" height="2"/>
	<rect x="37.2" y="307.2" class="st0" width="114" height="4"/>
	<rect x="59.2" y="254.2" class="st0" width="51" height="4"/>
	<rect x="12.2" y="125.2" class="st2" width="9" height="9"/>
	<rect x="0.2" y="140.2" class="st2" width="9" height="9"/>
	<rect x="424.2" y="215.2" class="st2" width="9" height="9"/>
	<rect x="26.2" y="304.2" class="st2" width="9" height="9"/>
	<rect x="59.2" y="261.2" class="st2" width="9" height="9"/>
	<g>
		<path class="st9" d="M240.4,189.1c-3.1-3.7-4.7-8.7-4.7-15c0-6.3,1.5-11.3,4.6-15s7.3-5.5,12.6-5.5c4.1,0,7.7,1.2,10.6,3.5
			c2.9,2.4,4.7,5.4,5.3,9.2h-5c-0.7-2.5-2-4.5-3.9-6c-2-1.5-4.3-2.2-7-2.2c-3.8,0-6.8,1.4-9,4.3s-3.3,6.8-3.3,11.7
			c0,4.9,1.1,8.8,3.3,11.7c2.2,2.9,5.2,4.3,9,4.3c2.7,0,5.1-0.7,7-2c1.9-1.3,3.2-3.1,3.8-5.4h5c-0.7,3.6-2.4,6.5-5.3,8.6
			c-2.9,2.1-6.4,3.2-10.6,3.2C247.7,194.6,243.5,192.8,240.4,189.1z"/>
		<path class="st9" d="M302.9,159.1c3.2,3.7,4.8,8.7,4.8,15c0,6.3-1.6,11.3-4.8,15c-3.2,3.7-7.6,5.6-13.2,5.6
			c-5.6,0-10-1.9-13.2-5.6c-3.2-3.7-4.8-8.7-4.8-15c0-6.3,1.6-11.3,4.9-15c3.2-3.7,7.6-5.5,13.2-5.5
			C295.3,153.5,299.7,155.4,302.9,159.1z M280.2,162.4c-2.3,2.9-3.5,6.8-3.5,11.7c0,4.9,1.1,8.7,3.4,11.7s5.5,4.4,9.6,4.4
			c4,0,7.2-1.5,9.5-4.4c2.3-2.9,3.4-6.8,3.4-11.7c0-4.9-1.2-8.8-3.5-11.7c-2.3-2.9-5.5-4.3-9.5-4.3
			C285.7,158.1,282.6,159.5,280.2,162.4z"/>
		<path class="st9" d="M312.3,154.5c2.7,0,5,0,6.7,0s4,0,6.7,0c5.8,0,10.4,1.7,13.6,5.2c3.3,3.4,4.9,8.3,4.9,14.4
			c0,6.2-1.6,11-4.9,14.4c-3.3,3.5-7.8,5.2-13.6,5.2h-13.5V154.5z M317.2,158.9c0,2.9,0,5.6,0,7.9c0,2.3,0,4.8,0,7.3s0,5,0,7.3
			s0,4.9,0,7.9h8.2c4.4,0,7.8-1.3,10.2-4c2.4-2.7,3.6-6.4,3.6-11.2c0-4.8-1.2-8.5-3.7-11.2c-2.4-2.7-5.8-4-10.2-4H317.2z"/>
		<path class="st9" d="M373.1,189.3c0,0.9,0,1.6,0,2.2c0,0.6,0,1.3,0,2.2h-24.3v-39.2h24.3v4.4h-19.4v12.6h18.4v4.3h-18.4v13.5
			H373.1z"/>
		<path class="st9" d="M376.3,183.4c1,0,1.8,0,2.5,0s1.5,0,2.5,0c0.3,2,1.4,3.7,3.2,4.9c1.8,1.2,4.1,1.8,6.9,1.8
			c2.6,0,4.8-0.6,6.6-1.9c1.7-1.3,2.6-2.9,2.6-4.8c0-1.7-0.6-3.1-1.9-4.2c-1.3-1.1-3.3-2-6-2.7l-5-1.3c-3.6-0.9-6.1-2.2-7.7-3.9
			c-1.6-1.7-2.4-3.9-2.4-6.7c0-3.3,1.3-6,3.8-8.1c2.5-2.1,5.9-3.1,10-3.1c3.8,0,7,1,9.5,3c2.6,2,3.9,4.6,4.1,7.8H400
			c-0.3-2-1.3-3.6-2.9-4.7c-1.6-1.1-3.6-1.7-6-1.7c-2.6,0-4.7,0.6-6.3,1.8c-1.6,1.2-2.4,2.8-2.4,4.8c0,1.5,0.6,2.8,1.8,3.7
			c1.2,1,3.1,1.8,5.8,2.5l4.1,1.1c4.1,1,7,2.4,8.7,4.1c1.8,1.7,2.6,4,2.6,6.9c0,3.6-1.3,6.5-4,8.6c-2.6,2.1-6.2,3.2-10.7,3.2
			c-4.1,0-7.5-1-10.2-3C378,189.5,376.5,186.8,376.3,183.4z"/>
		<path class="st9" d="M434.1,189.3c0,0.9,0,1.6,0,2.2c0,0.6,0,1.3,0,2.2h-24.3v-39.2h24.3v4.4h-19.4v12.6h18.4v4.3h-18.4v13.5
			H434.1z"/>
	</g>
</g>
</svg>
